<svg xmlns="http://www.w3.org/2000/svg" xmlns:xlink="http://www.w3.org/1999/xlink" width="500" viewBox="0 0 375 374.999991" height="500" preserveAspectRatio="xMidYMid meet"><defs><g></g><clipPath id="786b731452"><path d="M 264.78125 256.042969 L 273.660156 256.042969 L 273.660156 265.148438 L 264.78125 265.148438 Z M 264.78125 256.042969 " clip-rule="nonzero"></path></clipPath><clipPath id="217b4849d6"><path d="M 272.644531 265.101562 C 265.855469 259.113281 264.660156 257.382812 264.792969 256.71875 C 264.925781 256.316406 265.855469 256.050781 265.855469 256.183594 C 265.988281 256.183594 265.058594 257.117188 265.058594 257.117188 C 265.058594 257.117188 265.589844 256.050781 265.855469 256.050781 C 266.390625 256.183594 266.921875 258.714844 267.851562 259.910156 C 269.183594 261.375 273.574219 263.238281 273.574219 264.167969 C 273.707031 264.570312 272.644531 265.101562 272.644531 265.101562 " clip-rule="nonzero"></path></clipPath><clipPath id="76fc97cbf1"><path d="M 264.65625 257.101562 L 272.976562 257.101562 L 272.976562 264.847656 L 264.65625 264.847656 Z M 264.65625 257.101562 " clip-rule="nonzero"></path></clipPath><clipPath id="ce5505ddc4"><path d="M 271.976562 264.835938 C 264.527344 257.515625 265.589844 257.117188 265.589844 257.117188 C 265.589844 257.25 264.660156 258.179688 264.660156 258.046875 C 264.660156 258.046875 265.058594 257.117188 265.589844 257.117188 C 266.789062 256.984375 272.910156 262.574219 272.910156 263.769531 C 272.910156 264.300781 271.976562 264.835938 271.976562 264.835938 " clip-rule="nonzero"></path></clipPath><clipPath id="72e0f31c90"><path d="M 271.394531 246.15625 L 280.257812 246.15625 L 280.257812 256.621094 L 271.394531 256.621094 Z M 271.394531 246.15625 " clip-rule="nonzero"></path></clipPath><clipPath id="9c37f9cb33"><path d="M 279.296875 256.585938 C 273.441406 250.730469 271.3125 247.800781 271.445312 246.871094 C 271.578125 246.472656 272.378906 246.203125 272.378906 246.203125 C 272.511719 246.203125 271.578125 247.136719 271.578125 247.136719 C 271.578125 247.136719 272.109375 246.203125 272.511719 246.335938 C 273.972656 246.335938 280.359375 254.1875 280.226562 255.652344 C 280.226562 256.183594 279.296875 256.585938 279.296875 256.585938 " clip-rule="nonzero"></path></clipPath><clipPath id="d8d014b60d"><path d="M 268.613281 254.144531 L 275.472656 254.144531 L 275.472656 262.308594 L 268.613281 262.308594 Z M 268.613281 254.144531 " clip-rule="nonzero"></path></clipPath><clipPath id="4448acc542"><path d="M 274.105469 256.984375 C 271.179688 257.914062 274.90625 259.246094 275.171875 260.175781 C 275.304688 260.84375 274.375 262.304688 273.972656 262.304688 C 273.707031 262.304688 272.644531 260.84375 272.910156 260.441406 C 273.042969 260.042969 274.90625 259.777344 275.039062 260.042969 C 275.171875 260.308594 274.375 262.171875 273.707031 262.304688 C 272.644531 262.4375 268.652344 258.449219 268.652344 256.984375 C 268.652344 256.050781 269.980469 254.988281 270.914062 254.589844 C 271.84375 254.1875 273.308594 254.054688 274.105469 254.320312 C 274.640625 254.589844 275.4375 255.386719 275.4375 255.785156 C 275.4375 256.316406 274.105469 256.984375 274.105469 256.984375 " clip-rule="nonzero"></path></clipPath><clipPath id="716ad2bf35"><path d="M 265.410156 248.683594 L 277.835938 248.683594 L 277.835938 264.332031 L 265.410156 264.332031 Z M 265.410156 248.683594 " clip-rule="nonzero"></path></clipPath><clipPath id="fefb2f4df6"><path d="M 274.773438 256.183594 C 271.976562 249.53125 272.777344 248.734375 273.308594 248.734375 C 273.972656 248.867188 274.90625 250.195312 275.4375 251.394531 C 276.503906 253.257812 278.363281 258.980469 277.566406 260.042969 C 277.167969 260.578125 275.835938 260.578125 274.90625 260.175781 C 273.839844 259.644531 272.644531 257.25 271.84375 255.917969 C 271.046875 254.589844 269.582031 252.992188 269.847656 252.191406 C 269.980469 251.527344 270.914062 250.730469 271.578125 250.863281 C 272.910156 250.996094 276.234375 256.316406 276.503906 258.3125 C 276.503906 259.511719 275.96875 260.710938 275.304688 261.242188 C 274.507812 261.640625 273.042969 261.242188 271.710938 260.710938 C 269.847656 259.910156 265.324219 256.183594 265.589844 255.652344 C 265.722656 255.253906 268.117188 255.386719 269.183594 256.050781 C 270.648438 256.984375 271.84375 261.507812 272.644531 261.375 C 273.574219 261.242188 273.839844 255.785156 274.640625 255.386719 C 274.90625 255.121094 275.570312 255.519531 275.703125 255.785156 C 275.96875 256.183594 275.570312 257.78125 275.171875 257.914062 C 274.773438 258.046875 273.441406 256.585938 273.441406 256.183594 C 273.574219 255.785156 274.507812 255.253906 274.90625 255.386719 C 275.304688 255.386719 275.96875 256.183594 276.101562 256.851562 C 276.371094 258.3125 275.304688 262.839844 274.238281 263.769531 C 273.707031 264.300781 272.910156 264.433594 272.109375 264.035156 C 270.382812 263.371094 265.324219 257.78125 265.457031 256.183594 C 265.457031 255.519531 266.390625 254.855469 267.1875 254.855469 C 268.652344 254.722656 273.441406 259.246094 273.839844 258.847656 C 274.238281 258.445312 269.847656 253.921875 269.847656 252.460938 C 269.980469 251.660156 270.648438 250.730469 271.3125 250.730469 C 272.511719 250.863281 277.035156 257.914062 276.636719 258.445312 C 276.503906 258.714844 275.570312 258.445312 275.039062 258.046875 C 273.972656 256.984375 271.710938 252.058594 271.976562 250.597656 C 272.109375 249.664062 272.777344 248.734375 273.308594 248.734375 C 274.238281 248.867188 276.769531 252.859375 277.167969 254.457031 C 277.433594 255.519531 277.167969 256.984375 276.769531 257.117188 C 276.234375 257.382812 274.773438 256.183594 274.773438 256.183594 " clip-rule="nonzero"></path></clipPath></defs><g fill="#ffffff" fill-opacity="1"><g transform="translate(80.310038, 231.926642)"><g><path d="M 39.015625 -19.0625 C 39.015625 -15.09375 39.757812 -11.21875 41.25 -7.4375 C 42.738281 -3.664062 45.570312 -1.1875 49.75 0 L 10.125 0 C 14.5 -1.1875 17.429688 -3.617188 18.921875 -7.296875 C 20.410156 -10.972656 21.15625 -14.894531 21.15625 -19.0625 L 21.15625 -127.78125 C 21.15625 -131.757812 20.359375 -135.4375 18.765625 -138.8125 C 17.179688 -142.1875 14.300781 -144.566406 10.125 -145.953125 C 19.851562 -145.953125 28.6875 -146 36.625 -146.09375 C 44.570312 -146.195312 52.21875 -146.644531 59.5625 -147.4375 C 66.914062 -148.238281 74.414062 -149.582031 82.0625 -151.46875 C 89.707031 -153.351562 98.097656 -156.179688 107.234375 -159.953125 C 115.378906 -163.328125 123.472656 -167 131.515625 -170.96875 C 139.554688 -174.945312 147.695312 -178.671875 155.9375 -182.140625 C 164.175781 -185.617188 172.566406 -188.550781 181.109375 -190.9375 C 189.648438 -193.320312 198.488281 -194.515625 207.625 -194.515625 C 219.132812 -194.515625 230.003906 -191.929688 240.234375 -186.765625 C 250.460938 -181.597656 259.945312 -175.441406 268.6875 -168.296875 L 267.484375 -166.8125 C 252.796875 -178.726562 236.019531 -184.6875 217.15625 -184.6875 C 208.019531 -184.6875 199.128906 -183.789062 190.484375 -182 C 181.847656 -180.21875 173.3125 -177.984375 164.875 -175.296875 C 156.4375 -172.617188 148.09375 -169.691406 139.84375 -166.515625 C 131.601562 -163.335938 123.21875 -160.257812 114.6875 -157.28125 C 102.175781 -152.90625 89.710938 -149.523438 77.296875 -147.140625 C 64.890625 -144.765625 52.128906 -143.578125 39.015625 -143.578125 L 39.015625 -75.359375 C 41.003906 -75.359375 42.988281 -75.304688 44.96875 -75.203125 C 46.957031 -75.109375 49.046875 -75.0625 51.234375 -75.0625 C 54.410156 -75.0625 57.585938 -75.257812 60.765625 -75.65625 C 63.941406 -76.050781 66.921875 -76.796875 69.703125 -77.890625 C 72.484375 -78.984375 74.914062 -80.570312 77 -82.65625 C 79.082031 -84.738281 80.722656 -87.472656 81.921875 -90.859375 L 81.921875 -58.078125 C 80.128906 -63.242188 77 -67.019531 72.53125 -69.40625 C 68.0625 -71.789062 63.242188 -72.984375 58.078125 -72.984375 L 39.015625 -72.984375 Z M 39.015625 -19.0625 "></path></g></g></g><g fill="#edbe1c" fill-opacity="1"><g transform="translate(142.261611, 241.371556)"><g><path d="M 210.890625 55.40625 C 192.023438 55.601562 175.492188 52.125 161.296875 44.96875 C 147.097656 37.820312 134.488281 28.488281 123.46875 16.96875 C 112.445312 5.457031 102.515625 -7.492188 93.671875 -21.890625 C 84.835938 -36.285156 76.253906 -50.632812 67.921875 -64.9375 L 39.3125 -23.234375 C 36.738281 -19.660156 35.453125 -15.890625 35.453125 -11.921875 C 35.453125 -9.140625 36.242188 -6.601562 37.828125 -4.3125 C 39.421875 -2.03125 41.609375 -0.59375 44.390625 0 L 12.8125 0 C 16.78125 -1.382812 20.550781 -3.914062 24.125 -7.59375 C 27.695312 -11.269531 30.578125 -14.796875 32.765625 -18.171875 L 66.421875 -67.3125 C 60.859375 -76.050781 55.394531 -85.132812 50.03125 -94.5625 C 44.675781 -104 39.066406 -113.382812 33.203125 -122.71875 C 27.347656 -132.050781 21.09375 -140.890625 14.4375 -149.234375 C 7.789062 -157.578125 0.445312 -164.925781 -7.59375 -171.28125 C -15.632812 -177.632812 -24.570312 -182.695312 -34.40625 -186.46875 C -44.238281 -190.238281 -55.207031 -192.125 -67.3125 -192.125 L -67.3125 -195.109375 C -49.644531 -195.109375 -33.609375 -191.878906 -19.203125 -185.421875 C -4.804688 -178.972656 8.34375 -170.535156 20.25 -160.109375 C 32.164062 -149.679688 43.039062 -137.8125 52.875 -124.5 C 62.707031 -111.195312 71.789062 -97.695312 80.125 -84 L 107.53125 -124.21875 C 109.914062 -127.59375 111.109375 -130.96875 111.109375 -134.34375 C 111.109375 -137.125 110.210938 -139.503906 108.421875 -141.484375 C 106.640625 -143.472656 104.457031 -144.863281 101.875 -145.65625 L 131.359375 -145.65625 C 127.390625 -144.070312 123.914062 -141.488281 120.9375 -137.90625 C 117.957031 -134.332031 115.273438 -130.859375 112.890625 -127.484375 L 81.625 -81.3125 L 88.765625 -68.8125 L 103.0625 -43.484375 L 110.21875 -30.984375 C 115.976562 -21.046875 121.984375 -11.113281 128.234375 -1.1875 C 134.492188 8.738281 141.59375 17.722656 149.53125 25.765625 C 157.476562 33.804688 166.460938 40.304688 176.484375 45.265625 C 186.515625 50.234375 197.984375 52.71875 210.890625 52.71875 Z M 210.890625 55.40625 "></path></g></g></g><g fill="#ffffff" fill-opacity="1"><g transform="translate(47.593661, 287.582633)"><g><path d="M 35.546875 -1 C 35.453125 -0.863281 35.234375 -0.832031 34.890625 -0.90625 C 34.554688 -0.988281 34.160156 -1.03125 33.703125 -1.03125 C 33.242188 -1.03125 32.59375 -0.9375 31.75 -0.75 C 30.914062 -0.5625 29.597656 -0.269531 27.796875 0.125 C 26.003906 0.519531 24.367188 0.71875 22.890625 0.71875 C 19.535156 0.71875 16.285156 -0.0664062 13.140625 -1.640625 C 10.003906 -3.222656 7.492188 -5.460938 5.609375 -8.359375 C 3.722656 -11.265625 2.78125 -14.628906 2.78125 -18.453125 C 2.78125 -22.273438 3.722656 -25.734375 5.609375 -28.828125 C 8.347656 -33.378906 12.488281 -36.34375 18.03125 -37.71875 C 19.789062 -38.15625 21.550781 -38.375 23.3125 -38.375 C 25.726562 -38.375 28.59375 -37.96875 31.90625 -37.15625 C 32.90625 -36.90625 33.753906 -36.648438 34.453125 -36.390625 C 35.148438 -36.128906 35.578125 -36 35.734375 -36 L 36.53125 -36.203125 L 37.34375 -36.203125 C 37.550781 -36.203125 37.65625 -36.050781 37.65625 -35.75 L 37.65625 -27.53125 C 37.65625 -27.363281 37.492188 -27.28125 37.171875 -27.28125 C 36.859375 -27.28125 36.675781 -27.316406 36.625 -27.390625 C 36.570312 -27.472656 36.519531 -27.570312 36.46875 -27.6875 C 36.414062 -27.800781 36.359375 -27.914062 36.296875 -28.03125 C 36.234375 -28.15625 36.171875 -28.269531 36.109375 -28.375 C 36.046875 -28.488281 36.007812 -28.570312 36 -28.625 C 33.351562 -33.925781 29.34375 -36.578125 23.96875 -36.578125 C 19.125 -36.578125 15.335938 -35.035156 12.609375 -31.953125 C 9.878906 -28.867188 8.515625 -24.785156 8.515625 -19.703125 C 8.515625 -14.617188 10.015625 -10.253906 13.015625 -6.609375 C 16.015625 -2.960938 20.097656 -1.140625 25.265625 -1.140625 C 28.085938 -1.140625 30.65625 -1.972656 32.96875 -3.640625 C 35.28125 -5.316406 37.097656 -7.375 38.421875 -9.8125 C 38.460938 -9.914062 38.570312 -9.96875 38.75 -9.96875 L 39.09375 -9.96875 C 39.269531 -9.96875 39.359375 -9.859375 39.359375 -9.640625 C 39.359375 -9.429688 39.300781 -9.226562 39.1875 -9.03125 Z M 35.546875 -1 "></path></g></g></g><g fill="#ffffff" fill-opacity="1"><g transform="translate(88.974281, 287.582633)"><g><path d="M 1.375 0 C 1.226562 0 1.15625 -0.175781 1.15625 -0.53125 L 1.15625 -0.84375 C 1.15625 -0.988281 1.226562 -1.0625 1.375 -1.0625 C 1.476562 -1.0625 1.644531 -1.078125 1.875 -1.109375 C 2.101562 -1.140625 2.335938 -1.171875 2.578125 -1.203125 C 2.828125 -1.242188 3.054688 -1.285156 3.265625 -1.328125 C 3.484375 -1.378906 3.632812 -1.410156 3.71875 -1.421875 C 5.519531 -1.828125 6.421875 -2.851562 6.421875 -4.5 L 6.421875 -32.40625 C 6.421875 -33.914062 5.8125 -34.988281 4.59375 -35.625 C 3.875 -36.007812 3.097656 -36.203125 2.265625 -36.203125 L 1.265625 -36.203125 C 1.128906 -36.203125 1.0625 -36.273438 1.0625 -36.421875 L 1.0625 -37.046875 C 1.0625 -37.191406 1.164062 -37.265625 1.375 -37.265625 L 15.890625 -37.65625 L 18.546875 -37.65625 C 21.671875 -37.445312 24.285156 -36.316406 26.390625 -34.265625 C 28.492188 -32.210938 29.546875 -29.679688 29.546875 -26.671875 C 29.546875 -23.671875 28.296875 -21.332031 25.796875 -19.65625 C 25.015625 -19.144531 24.175781 -18.6875 23.28125 -18.28125 L 31.296875 -5.203125 C 32.679688 -2.910156 34.546875 -1.300781 36.890625 -0.375 C 37.085938 -0.320312 37.1875 -0.195312 37.1875 0 C 37.1875 0.4375 36.894531 0.65625 36.3125 0.65625 C 32.34375 0.65625 29.1875 -0.847656 26.84375 -3.859375 C 26.332031 -4.523438 25.820312 -5.273438 25.3125 -6.109375 L 18.46875 -16.828125 L 12.1875 -17.125 L 11.96875 -17.125 C 11.707031 -17.125 11.578125 -17 11.578125 -16.75 L 11.578125 -4.578125 C 11.578125 -3.609375 11.847656 -2.882812 12.390625 -2.40625 C 12.941406 -1.925781 13.882812 -1.597656 15.21875 -1.421875 C 15.570312 -1.367188 16.003906 -1.296875 16.515625 -1.203125 C 17.023438 -1.109375 17.375 -1.0625 17.5625 -1.0625 C 17.75 -1.0625 17.84375 -0.988281 17.84375 -0.84375 L 17.84375 -0.21875 C 17.84375 -0.0703125 17.769531 0 17.625 0 Z M 13.71875 -36.265625 C 13.507812 -36.265625 13.285156 -36.257812 13.046875 -36.25 C 12.804688 -36.238281 12.5 -36.226562 12.125 -36.21875 C 11.757812 -36.207031 11.578125 -36.0625 11.578125 -35.78125 L 11.578125 -19.765625 L 11.625 -18.96875 C 11.675781 -18.601562 11.84375 -18.410156 12.125 -18.390625 L 14.828125 -18.234375 C 19.773438 -18.234375 22.757812 -19.992188 23.78125 -23.515625 C 24.113281 -24.628906 24.28125 -25.898438 24.28125 -27.328125 C 24.28125 -30.109375 23.410156 -32.300781 21.671875 -33.90625 C 19.941406 -35.507812 17.726562 -36.3125 15.03125 -36.3125 C 14.789062 -36.3125 14.5625 -36.304688 14.34375 -36.296875 C 14.132812 -36.285156 13.925781 -36.273438 13.71875 -36.265625 Z M 13.71875 -36.265625 "></path></g></g></g><g fill="#ffffff" fill-opacity="1"><g transform="translate(126.470513, 287.582633)"><g><path d="M 0.1875 -0.21875 L 0.1875 -0.953125 C 0.1875 -1.085938 0.253906 -1.15625 0.390625 -1.15625 L 0.984375 -1.15625 C 1.722656 -1.207031 2.476562 -1.238281 3.25 -1.25 C 4.019531 -1.257812 4.722656 -1.351562 5.359375 -1.53125 C 6.804688 -1.957031 7.53125 -3.015625 7.53125 -4.703125 L 7.53125 -32.5625 C 7.53125 -34.300781 6.5 -35.410156 4.4375 -35.890625 C 3.851562 -36.015625 3.265625 -36.117188 2.671875 -36.203125 L 2.109375 -36.203125 C 1.972656 -36.203125 1.90625 -36.273438 1.90625 -36.421875 L 1.90625 -37.046875 C 1.90625 -37.191406 1.972656 -37.265625 2.109375 -37.265625 L 27.25 -37.265625 C 27.5625 -37.265625 27.785156 -37.207031 27.921875 -37.09375 C 28.066406 -36.976562 28.160156 -36.726562 28.203125 -36.34375 L 28.671875 -28.671875 C 28.671875 -28.492188 28.535156 -28.40625 28.265625 -28.40625 C 28.003906 -28.40625 27.816406 -28.484375 27.703125 -28.640625 C 27.585938 -28.816406 27.445312 -29.460938 27.28125 -30.578125 C 27.113281 -31.691406 26.8125 -32.617188 26.375 -33.359375 C 25.9375 -34.097656 25.160156 -34.5625 24.046875 -34.75 L 13.03125 -34.75 C 12.800781 -34.75 12.6875 -34.632812 12.6875 -34.40625 L 12.6875 -20.75 C 12.6875 -20.570312 12.773438 -20.484375 12.953125 -20.484375 L 22.09375 -20.484375 C 24.457031 -20.484375 25.640625 -21.859375 25.640625 -24.609375 C 25.640625 -24.742188 25.707031 -24.8125 25.84375 -24.8125 L 26.484375 -24.8125 C 26.617188 -24.8125 26.6875 -24.742188 26.6875 -24.609375 L 26.6875 -13.296875 C 26.6875 -13.148438 26.617188 -13.078125 26.484375 -13.078125 L 25.84375 -13.078125 C 25.707031 -13.078125 25.640625 -13.148438 25.640625 -13.296875 C 25.640625 -15.898438 24.878906 -17.40625 23.359375 -17.8125 C 22.941406 -17.914062 22.492188 -17.96875 22.015625 -17.96875 L 12.953125 -17.96875 C 12.773438 -17.96875 12.6875 -17.878906 12.6875 -17.703125 L 12.6875 -4.84375 C 12.6875 -3.519531 13.296875 -2.769531 14.515625 -2.59375 C 14.859375 -2.539062 15.226562 -2.515625 15.625 -2.515625 L 24.421875 -2.515625 C 26.234375 -2.515625 27.640625 -3.316406 28.640625 -4.921875 C 29.367188 -6.066406 29.8125 -7.378906 29.96875 -8.859375 C 30.019531 -9.347656 30.285156 -9.59375 30.765625 -9.59375 C 30.972656 -9.59375 31.078125 -9.476562 31.078125 -9.25 L 30.203125 -0.375 C 30.097656 -0.125 29.976562 0 29.84375 0 L 0.390625 0 C 0.253906 0 0.1875 -0.0703125 0.1875 -0.21875 Z M 0.1875 -0.21875 "></path></g></g></g><g fill="#ffffff" fill-opacity="1"><g transform="translate(159.870963, 287.582633)"><g><path d="M 1.1875 -37.125 C 1.1875 -37.269531 1.257812 -37.34375 1.40625 -37.34375 L 1.984375 -37.34375 L 10.46875 -37.53125 C 11.488281 -37.5625 12.597656 -37.578125 13.796875 -37.578125 L 17.09375 -37.578125 C 20.164062 -37.578125 22.472656 -37.460938 24.015625 -37.234375 C 25.554688 -37.003906 27.066406 -36.734375 28.546875 -36.421875 C 30.035156 -36.117188 31.625 -35.421875 33.3125 -34.328125 C 35 -33.234375 36.457031 -31.910156 37.6875 -30.359375 C 40.289062 -27.046875 41.59375 -23.46875 41.59375 -19.625 C 41.59375 -15.789062 40.585938 -12.347656 38.578125 -9.296875 C 35.691406 -4.878906 31.507812 -1.992188 26.03125 -0.640625 C 24.289062 -0.210938 22.503906 0 20.671875 0 L 1.40625 0 C 1.257812 0 1.1875 -0.0703125 1.1875 -0.21875 L 1.1875 -0.953125 C 1.1875 -1.085938 1.257812 -1.15625 1.40625 -1.15625 L 1.984375 -1.15625 C 5.191406 -1.15625 6.796875 -2.179688 6.796875 -4.234375 L 6.796875 -33.1875 C 6.796875 -34.175781 6.414062 -34.921875 5.65625 -35.421875 C 4.894531 -35.929688 4.039062 -36.1875 3.09375 -36.1875 L 1.40625 -36.1875 C 1.257812 -36.1875 1.1875 -36.253906 1.1875 -36.390625 Z M 12.609375 -36.34375 C 12.171875 -36.34375 11.953125 -36.101562 11.953125 -35.625 L 11.953125 -3.296875 C 11.953125 -1.992188 13.175781 -1.316406 15.625 -1.265625 C 16.34375 -1.242188 17.097656 -1.234375 17.890625 -1.234375 C 23.515625 -1.234375 27.929688 -2.8125 31.140625 -5.96875 C 34.359375 -9.125 35.96875 -13.320312 35.96875 -18.5625 C 35.96875 -23.800781 34.484375 -28.070312 31.515625 -31.375 C 28.546875 -34.6875 24.640625 -36.34375 19.796875 -36.34375 Z M 12.609375 -36.34375 "></path></g></g></g><g fill="#ffffff" fill-opacity="1"><g transform="translate(203.841175, 287.582633)"><g><path d="M 6.65625 -33.03125 C 6.65625 -35.144531 5.441406 -36.203125 3.015625 -36.203125 C 2.628906 -36.203125 2.4375 -36.273438 2.4375 -36.421875 L 2.4375 -37.046875 C 2.4375 -37.191406 2.503906 -37.265625 2.640625 -37.265625 L 15.890625 -37.265625 C 16.023438 -37.265625 16.09375 -37.191406 16.09375 -37.046875 L 16.09375 -36.421875 C 16.09375 -36.273438 15.703125 -36.203125 14.921875 -36.203125 C 14.148438 -36.203125 13.4375 -35.957031 12.78125 -35.46875 C 12.132812 -34.976562 11.8125 -33.960938 11.8125 -32.421875 L 11.8125 -4.234375 C 11.8125 -2.117188 13.035156 -1.0625 15.484375 -1.0625 C 15.859375 -1.0625 16.046875 -0.988281 16.046875 -0.84375 L 16.046875 -0.21875 C 16.046875 -0.0703125 15.972656 0 15.828125 0 L 2.59375 0 C 2.445312 0 2.375 -0.0703125 2.375 -0.21875 L 2.375 -0.84375 C 2.375 -0.988281 2.757812 -1.0625 3.53125 -1.0625 C 4.3125 -1.0625 5.023438 -1.304688 5.671875 -1.796875 C 6.328125 -2.285156 6.65625 -3.300781 6.65625 -4.84375 Z M 6.65625 -33.03125 "></path></g></g></g><g fill="#ffffff" fill-opacity="1"><g transform="translate(222.311835, 287.582633)"><g><path d="M 10.546875 -0.84375 C 10.546875 -0.988281 10.625 -1.0625 10.78125 -1.0625 L 11.515625 -1.0625 C 13.242188 -1.0625 14.628906 -1.429688 15.671875 -2.171875 C 16.722656 -2.910156 17.25 -3.769531 17.25 -4.75 L 17.25 -34.015625 C 17.25 -34.378906 17.175781 -34.582031 17.03125 -34.625 C 16.882812 -34.675781 16.703125 -34.71875 16.484375 -34.75 L 6.34375 -34.75 C 4.707031 -34.394531 3.632812 -33.132812 3.125 -30.96875 C 2.84375 -29.8125 2.671875 -29.066406 2.609375 -28.734375 C 2.554688 -28.410156 2.460938 -28.25 2.328125 -28.25 L 1.84375 -28.25 C 1.738281 -28.25 1.6875 -28.285156 1.6875 -28.359375 L 1.6875 -29.234375 L 2.671875 -37.46875 C 2.773438 -38.019531 2.945312 -38.296875 3.1875 -38.296875 C 3.4375 -38.296875 3.703125 -38.125 3.984375 -37.78125 C 4.265625 -37.4375 4.804688 -37.265625 5.609375 -37.265625 L 34.09375 -37.265625 C 34.851562 -37.265625 35.3125 -37.351562 35.46875 -37.53125 C 35.625 -37.707031 35.769531 -37.878906 35.90625 -38.046875 C 36.050781 -38.210938 36.234375 -38.296875 36.453125 -38.296875 C 36.671875 -38.296875 36.8125 -38.207031 36.875 -38.03125 C 36.9375 -37.851562 36.988281 -37.664062 37.03125 -37.46875 L 38 -29.234375 L 38 -28.359375 C 38 -28.285156 37.945312 -28.25 37.84375 -28.25 L 37.375 -28.25 C 37.226562 -28.25 37.128906 -28.378906 37.078125 -28.640625 C 36.796875 -30.410156 36.390625 -31.8125 35.859375 -32.84375 C 35.328125 -33.875 34.492188 -34.507812 33.359375 -34.75 L 23.171875 -34.75 C 22.960938 -34.71875 22.78125 -34.675781 22.625 -34.625 C 22.476562 -34.582031 22.40625 -34.378906 22.40625 -34.015625 L 22.40625 -4.75 C 22.40625 -3.769531 22.929688 -2.910156 23.984375 -2.171875 C 25.035156 -1.429688 26.421875 -1.0625 28.140625 -1.0625 L 28.90625 -1.0625 C 29.050781 -1.0625 29.125 -0.988281 29.125 -0.84375 L 29.125 -0.21875 C 29.125 -0.0703125 29.050781 0 28.90625 0 L 10.75 0 C 10.613281 0 10.546875 -0.0703125 10.546875 -0.21875 Z M 10.546875 -0.84375 "></path></g></g></g><g fill="#ffffff" fill-opacity="1"><g transform="translate(262.001293, 287.582633)"><g><path d="M 33.875 -2.265625 C 32.34375 -1.335938 30.671875 -0.609375 28.859375 -0.078125 C 27.046875 0.453125 25.429688 0.71875 24.015625 0.71875 C 21.128906 0.71875 18.375 0.25 15.75 -0.6875 C 12.15625 -1.988281 9.265625 -3.914062 7.078125 -6.46875 C 4.296875 -9.726562 2.90625 -13.863281 2.90625 -18.875 C 2.90625 -22.476562 3.828125 -25.765625 5.671875 -28.734375 C 7.523438 -31.703125 10.085938 -34.050781 13.359375 -35.78125 C 16.628906 -37.507812 20.144531 -38.375 23.90625 -38.375 C 27.664062 -38.375 31.035156 -37.535156 34.015625 -35.859375 C 36.992188 -34.191406 39.378906 -31.894531 41.171875 -28.96875 C 42.972656 -26.039062 43.875 -22.867188 43.875 -19.453125 C 43.875 -16.046875 42.984375 -12.804688 41.203125 -9.734375 C 39.421875 -6.660156 36.976562 -4.171875 33.875 -2.265625 Z M 8.453125 -19.71875 C 8.453125 -16.789062 9.097656 -13.882812 10.390625 -11 C 11.691406 -8.125 13.546875 -5.773438 15.953125 -3.953125 C 18.367188 -2.140625 21.164062 -1.234375 24.34375 -1.234375 C 28.851562 -1.234375 32.367188 -2.960938 34.890625 -6.421875 C 37.160156 -9.535156 38.296875 -13.515625 38.296875 -18.359375 C 38.296875 -23.210938 36.90625 -27.390625 34.125 -30.890625 C 32.757812 -32.597656 31.09375 -33.96875 29.125 -35 C 27.164062 -36.03125 25.1875 -36.546875 23.1875 -36.546875 C 21.1875 -36.546875 19.546875 -36.328125 18.265625 -35.890625 C 16.992188 -35.453125 15.835938 -34.847656 14.796875 -34.078125 C 13.753906 -33.304688 12.835938 -32.394531 12.046875 -31.34375 C 11.253906 -30.289062 10.59375 -29.144531 10.0625 -27.90625 C 8.988281 -25.375 8.453125 -22.644531 8.453125 -19.71875 Z M 8.453125 -19.71875 "></path></g></g></g><g clip-path="url(#786b731452)"><g clip-path="url(#217b4849d6)"><path fill="#edbe1c" d="M 259.46875 250.730469 L 278.898438 250.730469 L 278.898438 270.460938 L 259.46875 270.460938 Z M 259.46875 250.730469 " fill-opacity="1" fill-rule="nonzero"></path></g></g><g clip-path="url(#76fc97cbf1)"><g clip-path="url(#ce5505ddc4)"><path fill="#edbe1c" d="M 259.203125 251.792969 L 278.355469 251.792969 L 278.355469 270.15625 L 259.203125 270.15625 Z M 259.203125 251.792969 " fill-opacity="1" fill-rule="nonzero"></path></g></g><g clip-path="url(#72e0f31c90)"><g clip-path="url(#9c37f9cb33)"><path fill="#edbe1c" d="M 266.121094 240.882812 L 285.683594 240.882812 L 285.683594 261.894531 L 266.121094 261.894531 Z M 266.121094 240.882812 " fill-opacity="1" fill-rule="nonzero"></path></g></g><g clip-path="url(#d8d014b60d)"><g clip-path="url(#4448acc542)"><path fill="#edbe1c" d="M 263.328125 249 L 280.894531 249 L 280.894531 267.664062 L 263.328125 267.664062 Z M 263.328125 249 " fill-opacity="1" fill-rule="nonzero"></path></g></g><g clip-path="url(#716ad2bf35)"><g clip-path="url(#fefb2f4df6)"><path fill="#edbe1c" d="M 260.132812 243.410156 L 283.023438 243.410156 L 283.023438 269.515625 L 260.132812 269.515625 Z M 260.132812 243.410156 " fill-opacity="1" fill-rule="nonzero"></path></g></g></svg>